<?xml version="1.0" encoding="UTF-8" standalone="no"?><!DOCTYPE svg PUBLIC "-//W3C//DTD SVG 1.1//EN" "http://www.w3.org/Graphics/SVG/1.1/DTD/svg11.dtd"><svg width="100%" height="100%" viewBox="0 0 2000 2000" version="1.1" xmlns="http://www.w3.org/2000/svg" xmlns:xlink="http://www.w3.org/1999/xlink" xml:space="preserve" xmlns:serif="http://www.serif.com/" style="fill-rule:evenodd;clip-rule:evenodd;stroke-linecap:round;stroke-linejoin:round;stroke-miterlimit:1.5;"><g><path d="M1099.942,1910.51c-34.847,-1.86 -141.407,-7.519 -237.49,-12.319c-116.853,-5.837 -307.921,-35.876 -356.007,-45.31c-48.085,-9.434 -414.262,-119.748 -414.262,-119.748l97.093,-252.441l0.219,0.334l-0.053,-0.221c1.723,1.166 4.776,2.947 8.98,5.26c58.616,32.25 340.904,167.759 359.806,175.866c11.425,4.9 84.385,41.103 149.705,73.601c37.688,18.751 72.833,36.268 92.146,45.826c6.698,3.315 11.492,5.673 13.827,6.793c20.198,9.687 283.417,117.134 297.191,122.755l-2.528,0.063l-8.627,-0.461Z" style="fill:#4d4d4d;"/><path d="M393.17,1218.541l407.79,563.138l-0.881,-0.32c-19.313,-9.559 -54.458,-27.076 -92.146,-45.826c-65.32,-32.498 -138.28,-68.701 -149.705,-73.601c-18.902,-8.107 -301.191,-143.616 -359.806,-175.866c-4.203,-2.313 -7.257,-4.094 -8.98,-5.26l-0.06,-0.251l203.788,-262.013Z" style="fill:#808080;"/><path d="M1221.695,1587.494l116.511,304.224l-106.802,16.182l-443.39,-576.084c0,0 378.897,224.408 394.844,233.023c15.947,8.615 38.837,22.655 38.837,22.655Z" style="fill:#4d4d4d;"/><path d="M876.898,1255.586l344.797,331.908c0,0 -22.89,-14.04 -38.837,-22.655c-15.947,-8.615 -394.844,-233.023 -394.844,-233.023l88.884,-76.23Z" style="fill:#1a1a1a;"/><path d="M1231.404,1907.9l-120.308,3.008c-13.774,-5.621 -276.993,-113.068 -297.191,-122.755c-2.335,-1.12 -7.129,-3.478 -13.827,-6.793l0.881,0.32l-407.79,-563.138l394.181,113.085l0.663,3.427l0,-3.236l443.39,576.084Z" style="fill:#333;"/><path d="M1059.874,1098.66l-271.86,233.157l-45.31,-229.92l317.17,-3.236Z" style="fill:#333;"/><path d="M189.382,1480.555l-158.691,-663.33l361.439,402.655l-202.747,260.675Z" style="fill:#999;"/><path d="M1024.273,991.992l171.531,106.668l-138.152,1.906l2.222,-1.906l-317.17,3.236l-1.421,-2.373l282.99,-107.532Z" style="fill:#666;"/><path d="M1160.203,765.442l-135.471,226.835l-0.459,-0.285l-282.99,107.532l-282.933,-472.493l381.446,-136.685l3.506,3.783c-33.397,13.877 -56.907,46.824 -56.907,85.219c0,1.177 0.022,2.348 0.066,3.514c1.85,49.282 42.441,88.724 92.172,88.724c28.134,0 53.343,-12.623 70.268,-32.51c4.678,-5.497 8.723,-11.548 12.021,-18.041l1.858,2.005l197.422,142.403Z" style="fill:#ccc;"/><path d="M843.303,494.129c10.884,-4.522 22.818,-7.019 35.331,-7.019c50.908,0 92.238,41.331 92.238,92.238c0,14.997 -3.587,29.164 -9.949,41.687c-3.299,6.493 -7.344,12.545 -12.021,18.041c-16.924,19.887 -42.133,32.51 -70.268,32.51c-49.731,0 -90.322,-39.442 -92.172,-88.724c-0.044,-1.166 -0.066,-2.338 -0.066,-3.514c0,-38.395 23.51,-71.342 56.907,-85.219Z" style="fill:#2a1a14;"/><path d="M30.691,817.225l200.658,-485.464l226.55,294.515l-427.208,190.949Z" style="fill:#666;"/><path d="M231.349,331.761l375.425,-242.732l485.464,430.445l-860.889,-187.713Z" style="fill:#ccc;"/><path d="M1276.714,357.652l67.965,213.604l-25.891,110.038l-197.422,-132.693l38.837,216.84l-197.422,-142.403l-1.858,-2.005c6.362,-12.523 9.949,-26.689 9.949,-41.687c0,-50.908 -41.331,-92.238 -92.238,-92.238c-12.513,0 -24.447,2.497 -35.331,7.019l-3.506,-3.783l-381.446,136.685l-0.452,-0.755l-226.55,-294.515l860.889,187.713l184.476,-161.821Z" style="fill:#808080;"/><path d="M606.774,89.029l404.553,80.911l265.387,187.713l-184.476,161.821l-485.464,-430.445Z" style="fill:#e6e6e6;"/><path d="M1375.319,761.32l34.089,-92.971l184.476,190.949l375.425,203.895l-113.275,97.093l-200.658,-168.294l-168.294,-148.876l-110.038,-80.911l-1.725,-0.886Z" style="fill:#ff9611;"/><path d="M1062.419,1014.164l81.602,-119.265l84.147,-106.802l29.128,-87.383l119.748,61.492l110.038,80.911l168.294,148.876l200.658,168.294l-17.598,4.855l-166.878,24.273l-346.298,-103.566l-262.842,-71.684Zm354.229,-103.042c8.593,-1.042 15.423,-4.732 18.74,-10.973c7.31,-13.752 -5.184,-34.714 -27.884,-46.781c-22.7,-12.067 -47.064,-10.699 -54.375,3.054c-2.89,5.436 -2.685,11.998 0.022,18.693c4.14,10.241 14.135,20.791 27.862,28.088c12.398,6.591 25.293,9.173 35.635,7.92Z" style="fill:#ff8406;"/><path d="M1416.648,911.122c-10.342,1.254 -23.236,-1.329 -35.635,-7.92c-13.727,-7.297 -23.722,-17.847 -27.862,-28.088c-2.706,-6.694 -2.911,-13.257 -0.022,-18.693c7.31,-13.752 31.675,-15.12 54.375,-3.054c22.7,12.067 35.194,33.028 27.884,46.781c-3.318,6.241 -10.147,9.931 -18.74,10.973Z" style="fill:#2a1a14;"/><path d="M424.143,641.363l0.993,0.361l32.762,-15.449l284.805,475.621l-712.014,-284.671l393.453,-175.861Z" style="fill:#999;"/><path d="M743.296,1104.901l-0.007,0c-0.262,-1.305 -0.459,-2.273 -0.586,-2.871l-0.322,-0.021c-0.835,-0.051 -1.694,-0.084 -2.575,-0.101l-0.418,-0.007c-1.465,-0.019 -2.988,0.007 -4.561,0.074c-27.679,1.178 -70.93,15.012 -85.981,19.472c-16.573,4.911 -117.003,40.341 -139.166,48.546c-22.163,8.205 -116.511,48.546 -116.511,48.546l-1.041,1.339l-361.439,-402.655l712.014,284.671l0.592,3.005Z" style="fill:#b3b3b3;"/><path d="M746.499,1121.15c10.099,51.511 36.348,187.186 40.853,210.476l-394.181,-113.085c0,0 94.348,-40.341 116.511,-48.546c22.163,-8.205 122.593,-43.635 139.166,-48.546c15.051,-4.46 58.302,-18.294 85.981,-19.472c1.573,-0.067 3.097,-0.093 4.561,-0.074l0.078,0.128l0.34,-0.121c0.881,0.017 1.739,0.05 2.575,0.101l0.322,0.021c0.126,0.598 0.323,1.566 0.586,2.871l0.501,2.509l2.708,13.739Z" style="fill:#4d4d4d;"/><path d="M739.807,1101.909l-0.34,0.121l-0.078,-0.128l0.418,0.007Z" style="fill:#c6c6c6;"/><path d="M1671.558,1189.414l178.003,-25.891l-165.058,45.31l-489.6,-110.16l0.9,-0.012l-134.129,-83.409l0.744,-1.087l262.842,71.684l346.298,103.566Z" style="fill:#d65c06;"/><path d="M1344.294,572.894l0.385,-0.045l64.414,96.358l-33.774,92.112l-118.023,-60.606l-29.128,87.383l-84.147,106.802l-82.346,120.352l-36.943,-22.973l135.471,-226.835l-38.837,-216.84l197.422,132.693l25.506,-108.401Z" style="fill:#1a1a1a;stroke:#000;stroke-width:1px;"/></g></svg>